HIERARCHY
ROOT Hips
{
    OFFSET   0.000000   0.000000   0.000000
    CHANNELS 6 Xposition Yposition Zposition Zrotation Xrotation Yrotation
    JOINT Chest
    {
        OFFSET   0.000000   8.007240   0.000000
        CHANNELS 3 Zrotation Xrotation Yrotation
        JOINT Chest2
        {
            OFFSET   0.000000  22.077100   0.000000
            CHANNELS 3 Zrotation Xrotation Yrotation
            JOINT Neck
            {
                OFFSET   0.000000  23.254800   0.000000
                CHANNELS 3 Zrotation Xrotation Yrotation
                JOINT Head
                {
                    OFFSET   0.000000  14.370000   1.956600
                    CHANNELS 3 Zrotation Xrotation Yrotation
                    End Site
                    {
                        OFFSET   0.000000  19.566000   0.000000
                    }
                }
            }
            JOINT LeftCollar
            {
                OFFSET   3.911900  19.017000  -0.467064
                CHANNELS 3 Zrotation Xrotation Yrotation
                JOINT LeftShoulder
                {
                    OFFSET  10.383700   0.000000   0.000000
                    CHANNELS 3 Zrotation Xrotation Yrotation
                    JOINT LeftElbow
                    {
                        OFFSET  26.662100   0.001476   0.000517
                        CHANNELS 3 Zrotation Xrotation Yrotation
                        JOINT LeftWrist
                        {
                            OFFSET  28.869000  -0.000025  -0.000106
                            CHANNELS 3 Zrotation Xrotation Yrotation
                            JOINT LeftFinger0
                            {
                                OFFSET   2.044660  -2.323460   3.252850
                                CHANNELS 3 Zrotation Xrotation Yrotation
                                JOINT LeftFinger01
                                {
                                    OFFSET   3.088130   0.000000   0.000000
                                    CHANNELS 3 Zrotation Xrotation Yrotation
                                    JOINT LeftFinger02
                                    {
                                        OFFSET   2.639460   0.000000   0.000000
                                        CHANNELS 3 Zrotation Xrotation Yrotation
                                        End Site
                                        {
                                            OFFSET   2.582190   0.000000   0.000000
                                        }
                                    }
                                }
                            }
                            JOINT LeftFinger1
                            {
                                OFFSET   8.364480   0.000000   3.252850
                                CHANNELS 3 Zrotation Xrotation Yrotation
                                JOINT LeftFinger11
                                {
                                    OFFSET   4.646930   0.000000   0.000000
                                    CHANNELS 3 Zrotation Xrotation Yrotation
                                    JOINT LeftFinger12
                                    {
                                        OFFSET   2.323460   0.000000   0.000000
                                        CHANNELS 3 Zrotation Xrotation Yrotation
                                        End Site
                                        {
                                            OFFSET   2.273050   0.000000   0.000000
                                        }
                                    }
                                }
                            }
                            JOINT LeftFinger2
                            {
                                OFFSET   8.364490   0.000015   1.078090
                                CHANNELS 3 Zrotation Xrotation Yrotation
                                JOINT LeftFinger21
                                {
                                    OFFSET   5.111620   0.000000   0.000000
                                    CHANNELS 3 Zrotation Xrotation Yrotation
                                    JOINT LeftFinger22
                                    {
                                        OFFSET   2.788160   0.000016   0.000000
                                        CHANNELS 3 Zrotation Xrotation Yrotation
                                        End Site
                                        {
                                            OFFSET   2.727660   0.000000   0.000000
                                        }
                                    }
                                }
                            }
                            JOINT LeftFinger3
                            {
                                OFFSET   7.899780   0.000017  -1.078090
                                CHANNELS 3 Zrotation Xrotation Yrotation
                                JOINT LeftFinger31
                                {
                                    OFFSET   4.646930   0.000000   0.000000
                                    CHANNELS 3 Zrotation Xrotation Yrotation
                                    JOINT LeftFinger32
                                    {
                                        OFFSET   2.323470   0.000000   0.000000
                                        CHANNELS 3 Zrotation Xrotation Yrotation
                                        End Site
                                        {
                                            OFFSET   2.273050   0.000000   0.000000
                                        }
                                    }
                                }
                            }
                            JOINT LeftFinger4
                            {
                                OFFSET   7.435090   0.000000  -3.252850
                                CHANNELS 3 Zrotation Xrotation Yrotation
                                JOINT LeftFinger41
                                {
                                    OFFSET   3.717550   0.000000   0.000000
                                    CHANNELS 3 Zrotation Xrotation Yrotation
                                    JOINT LeftFinger42
                                    {
                                        OFFSET   1.858770   0.000000   0.000000
                                        CHANNELS 3 Zrotation Xrotation Yrotation
                                        End Site
                                        {
                                            OFFSET   1.818440   0.000000   0.000000
                                        }
                                    }
                                }
                            }
                        }
                    }
                }
            }
            JOINT RightCollar
            {
                OFFSET  -3.911900  19.017000  -0.467063
                CHANNELS 3 Zrotation Xrotation Yrotation
                JOINT RightShoulder
                {
                    OFFSET -10.383700   0.000019   0.000000
                    CHANNELS 3 Zrotation Xrotation Yrotation
                    JOINT RightElbow
                    {
                        OFFSET -26.662100   0.001175   0.000102
                        CHANNELS 3 Zrotation Xrotation Yrotation
                        JOINT RightWrist
                        {
                            OFFSET -28.869000   0.000016  -0.000079
                            CHANNELS 3 Zrotation Xrotation Yrotation
                            JOINT RightFinger0
                            {
                                OFFSET  -2.044660  -2.323490   3.252850
                                CHANNELS 3 Zrotation Xrotation Yrotation
                                JOINT RightFinger01
                                {
                                    OFFSET  -3.088140   0.000000   0.000000
                                    CHANNELS 3 Zrotation Xrotation Yrotation
                                    JOINT RightFinger02
                                    {
                                        OFFSET  -2.639460   0.000000   0.000000
                                        CHANNELS 3 Zrotation Xrotation Yrotation
                                        End Site
                                        {
                                            OFFSET  -2.582190   0.000000   0.000000
                                        }
                                    }
                                }
                            }
                            JOINT RightFinger1
                            {
                                OFFSET  -8.364480   0.000000   3.252850
                                CHANNELS 3 Zrotation Xrotation Yrotation
                                JOINT RightFinger11
                                {
                                    OFFSET  -4.646930   0.000000   0.000000
                                    CHANNELS 3 Zrotation Xrotation Yrotation
                                    JOINT RightFinger12
                                    {
                                        OFFSET  -2.323470   0.000000   0.000000
                                        CHANNELS 3 Zrotation Xrotation Yrotation
                                        End Site
                                        {
                                            OFFSET  -2.273050   0.000000   0.000000
                                        }
                                    }
                                }
                            }
                            JOINT RightFinger2
                            {
                                OFFSET  -8.364480   0.000000   1.078090
                                CHANNELS 3 Zrotation Xrotation Yrotation
                                JOINT RightFinger21
                                {
                                    OFFSET  -5.111620   0.000000   0.000000
                                    CHANNELS 3 Zrotation Xrotation Yrotation
                                    JOINT RightFinger22
                                    {
                                        OFFSET  -2.788160   0.000000   0.000000
                                        CHANNELS 3 Zrotation Xrotation Yrotation
                                        End Site
                                        {
                                            OFFSET  -2.727660   0.000000   0.000000
                                        }
                                    }
                                }
                            }
                            JOINT RightFinger3
                            {
                                OFFSET  -7.899780   0.000000  -1.078090
                                CHANNELS 3 Zrotation Xrotation Yrotation
                                JOINT RightFinger31
                                {
                                    OFFSET  -4.646930   0.000000   0.000000
                                    CHANNELS 3 Zrotation Xrotation Yrotation
                                    JOINT RightFinger32
                                    {
                                        OFFSET  -2.323470   0.000000   0.000000
                                        CHANNELS 3 Zrotation Xrotation Yrotation
                                        End Site
                                        {
                                            OFFSET  -2.273050   0.000000   0.000000
                                        }
                                    }
                                }
                            }
                            JOINT RightFinger4
                            {
                                OFFSET  -7.435090   0.000000  -3.252850
                                CHANNELS 3 Zrotation Xrotation Yrotation
                                JOINT RightFinger41
                                {
                                    OFFSET  -3.717550   0.000000   0.000000
                                    CHANNELS 3 Zrotation Xrotation Yrotation
                                    JOINT RightFinger42
                                    {
                                        OFFSET  -1.858770   0.000000   0.000000
                                        CHANNELS 3 Zrotation Xrotation Yrotation
                                        End Site
                                        {
                                            OFFSET  -1.818440   0.000000   0.000000
                                        }
                                    }
                                }
                            }
                        }
                    }
                }
            }
        }
    }
    JOINT LeftHip
    {
        OFFSET   9.783040   0.000000   0.000000
        CHANNELS 3 Zrotation Xrotation Yrotation
        JOINT LeftKnee
        {
            OFFSET   0.000032 -41.789100  -0.002222
            CHANNELS 3 Zrotation Xrotation Yrotation
            JOINT LeftAnkle
            {
                OFFSET   0.000087 -41.133200  -0.000135
                CHANNELS 3 Zrotation Xrotation Yrotation
                JOINT LeftToe
                {
                    OFFSET   0.000000  -6.358960  14.674500
                    CHANNELS 3 Zrotation Xrotation Yrotation
                    End Site
                    {
                        OFFSET   0.000000   0.000000   3.913200
                    }
                }
            }
        }
    }
    JOINT RightHip
    {
        OFFSET  -9.783040   0.000000   0.000000
        CHANNELS 3 Zrotation Xrotation Yrotation
        JOINT RightKnee
        {
            OFFSET   0.000047 -41.789100  -0.000896
            CHANNELS 3 Zrotation Xrotation Yrotation
            JOINT RightAnkle
            {
                OFFSET  -0.000117 -41.133300  -0.000248
                CHANNELS 3 Zrotation Xrotation Yrotation
                JOINT RightToe
                {
                    OFFSET   0.000000  -6.358970  14.674500
                    CHANNELS 3 Zrotation Xrotation Yrotation
                    End Site
                    {
                        OFFSET   0.000000   0.000000   3.913200
                    }
                }
            }
        }
    }
}
MOTION
Frames: 4
Frame Time:   0.016667
 -1.697190  89.456100   0.369866  -2.698710  -6.425380  -1.302730   1.753070   4.802870  -2.327000   3.720560   9.527810  -4.826120   1.288790  -0.506518   0.019831   2.122150  -1.024610  13.263400  -6.356890   2.614270  -0.453649 -72.864500  20.520200  -9.998190  -2.425050  -2.653580 -11.614200  10.146800  -5.115160  10.483000  40.941600  29.491700 -62.965200 -24.806700   0.004474   0.007620  -7.403360   0.003326   0.006835 -36.723700   7.135080  -9.449910 -30.536700  -0.002585  -0.001641 -21.363400  -0.001940  -0.000846 -29.596900   2.559580  -4.495060 -44.546700   0.005889  -0.000415 -29.679300   0.005530  -0.002659 -30.559900  -0.908566   1.538600 -45.856700   0.003090   0.013087 -30.543600   0.002858   0.008020 -41.704300  -1.590720   1.793180 -62.594000  -0.001767  -0.004351 -41.687600   0.010387  -0.002530   5.328760  -0.756191  12.487200  71.131500  13.873400   0.918369   0.832395   0.792136   9.678050 -15.273800 -16.800700   0.081906 -41.485900  37.469600  77.121300  27.458500   0.002957  -0.001406   8.725300  -0.000108  -0.005461  33.613100  10.996200  16.019000  28.771800   0.005819  -0.001170  20.132000   0.000538  -0.000764  30.284100   4.979310   8.433030  45.978000   0.000305  -0.005293  30.621400  -0.002032   0.004144  30.149000   3.715130   6.340280  45.532400  -0.007074  -0.003011  30.324600   0.004238   0.006660  42.252500  -1.757520  -1.934360  63.400300  -0.001548   0.005733  42.239800   0.004890  -0.006378   4.317120  10.420500   3.850010   0.748837   0.432634  16.300700  -3.391480  -2.713980   2.768670  -0.000000   0.000000  -0.000000   0.479154   4.508360  -1.983700   1.686520   5.193200  -8.110250  -2.442050  -2.532620  -5.363770  -0.000000   0.000000   0.000000
 -1.705110  89.456100   0.375975  -2.706560  -6.415320  -1.346640   1.753000   4.798150  -2.325110   3.720050   9.518460  -4.822130   1.289740  -0.506491   0.019811   2.122960  -1.024540  13.279800  -6.356970   2.614350  -0.453548 -72.866000  20.532300 -10.008800  -2.424450  -2.658410 -11.605900  10.152600  -5.104600  10.480300  40.952600  29.508400 -62.983900 -24.796200   0.004474   0.007610  -7.398130   0.003322   0.006835 -36.718100   7.150610  -9.472760 -30.532200  -0.002585  -0.001631 -21.363500  -0.001941  -0.000843 -29.598300   2.564670  -4.503890 -44.549300   0.005893  -0.000415 -29.679200   0.005533  -0.002659 -30.560500  -0.892082   1.510620 -45.856700   0.003090   0.013086 -30.543400   0.002859   0.008018 -41.711000  -1.591910   1.793080 -62.604100  -0.001768  -0.004345 -41.694300   0.010388  -0.002529   5.333680  -0.755945  12.487200  71.131400  13.882200   0.918245   0.834599   0.779561   9.659570 -15.283400 -16.804000   0.081909 -41.489200  37.467900  77.115600  27.460500   0.002950  -0.001403   8.728040  -0.000109  -0.005461  33.613900  10.996400  16.016400  28.772000   0.005818  -0.001171  20.135300   0.000534  -0.000765  30.289500   4.979300   8.432940  45.986200   0.000298  -0.005296  30.626900  -0.002035   0.004142  30.153900   3.715090   6.340100  45.539700  -0.007078  -0.003016  30.329400   0.004233   0.006654  42.252600  -1.757690  -1.934510  63.404900  -0.001555   0.005729  42.239900   0.004887  -0.006378   4.321920  10.438400   3.858200   0.748062   0.402113  16.324200  -3.391090  -2.709510   2.781920   0.000000   0.000000  -0.000000   0.493692   4.506000  -1.983700   1.676170   5.174570  -8.110800  -2.443670  -2.521990  -5.310090  -0.000000   0.000000   0.000000
 -1.717010  89.456100   0.385553  -2.720570  -6.400870  -1.419100   1.753100   4.791070  -2.322310   3.719670   9.504410  -4.816220   1.293260  -0.506452   0.019791   2.127090  -1.024390  13.307800  -6.357050   2.614440  -0.453447 -72.867500  20.553100 -10.026600  -2.422880  -2.668030 -11.597600  10.164100  -5.093940  10.475600  40.971200  29.534200 -63.012700 -24.776900   0.004472   0.007593  -7.388450   0.003314   0.006836 -36.710200   7.172610  -9.505030 -30.526200  -0.002586  -0.001610 -21.363600  -0.001943  -0.000839 -29.601100   2.576020  -4.523460 -44.554400   0.005900  -0.000413 -29.679000   0.005538  -0.002659 -30.561500  -0.868453   1.470450 -45.856700   0.003092   0.013083 -30.543100   0.002860   0.008012 -41.722600  -1.594360   1.792980 -62.621500  -0.001770  -0.004332 -41.705900   0.010389  -0.002526   5.341060  -0.755699  12.487000  71.131100  13.896500   0.918142   0.837552   0.762960   9.630210 -15.295000 -16.814500   0.081926 -41.492600  37.466200  77.109900  27.468400   0.002937  -0.001401   8.734190  -0.000111  -0.005459  33.616500  10.996800  16.011600  28.773500   0.005818  -0.001177  20.141400   0.000524  -0.000768  30.298500   4.979270   8.432780  45.999800   0.000280  -0.005303  30.635900  -0.002043   0.004137  30.162200   3.715000   6.339920  45.552500  -0.007088  -0.003025  30.337900   0.004220   0.006640  42.252700  -1.757930  -1.934730  63.412000  -0.001570   0.005721  42.240000   0.004878  -0.006378   4.331590  10.460500   3.870170   0.747240   0.371579  16.358900  -3.390190  -2.705010   2.808910  -0.000000   0.000000   0.000000   0.508232   4.503640  -1.983710   1.663540   5.140070  -8.111140  -2.446010  -2.504080  -5.231300   0.000000   0.000000  -0.000000
 -1.723350  89.456100   0.391945  -2.734300  -6.394340  -1.477010   1.753620   4.786880  -2.320590   3.720340   9.496060  -4.812610   1.299690  -0.506443   0.019815   2.137360  -1.024190  13.333000  -6.356430   2.614420  -0.453468 -72.867700  20.570800 -10.041100  -2.420200  -2.679460 -11.598100  10.176200  -5.093870  10.470800  40.987400  29.550500 -63.030500 -24.752600   0.004440   0.007582  -7.376310   0.003305   0.006825 -36.706500   7.182950  -9.519870 -30.524300  -0.002591  -0.001590 -21.363400  -0.001947  -0.000837 -29.604300   2.593410  -4.553310 -44.561000   0.005902  -0.000409 -29.680100   0.005540  -0.002656 -30.563900  -0.856356   1.449690 -45.860600   0.003097   0.013078 -30.544600   0.002864   0.008000 -41.733400  -1.597580   1.793010 -62.637700  -0.001769  -0.004317 -41.716600   0.010388  -0.002525   5.345040  -0.755704  12.486900  71.130700  13.907800   0.918596   0.838292   0.759630   9.610220 -15.295100 -16.840500   0.089535 -41.485600  37.472400  77.115600  27.485400   0.002922  -0.001437   8.742950  -0.000107  -0.005451  33.629300  10.997200  16.005600  28.783400   0.005818  -0.001189  20.149300   0.000507  -0.000774  30.307000   4.979220   8.432580  46.012800   0.000249  -0.005311  30.644600  -0.002052   0.004127  30.171700   3.714870   6.340360  45.566900  -0.007104  -0.003034  30.347600   0.004202   0.006617  42.252400  -1.758030  -1.934820  63.417700  -0.001588   0.005707  42.239700   0.004866  -0.006376   4.342790  10.464800   3.876140   0.746660   0.379891  16.377300  -3.392690  -2.716180   2.842140  -0.000000   0.000000   0.000000   0.508640   4.524230  -1.984280   1.666770   5.095470  -8.090050  -2.446110  -2.488940  -5.191810  -0.000000   0.000000   0.000000
